<svg class="icon" viewBox="0 0 1024 1024" xmlns="http://www.w3.org/2000/svg" width="200" height="200"><defs><style/></defs><path d="M793.25 62h-562.5a112.5 112.5 0 0 0-112.5 112.5v675A112.5 112.5 0 0 0 230.75 962h562.5a112.5 112.5 0 0 0 112.5-112.5v-675A112.5 112.5 0 0 0 793.25 62zm-463.5 689.625a42.75 42.75 0 0 1-85.5 0v-112.5a42.75 42.75 0 0 1 85.5 0zm225 0a42.75 42.75 0 0 1-85.5 0v-168.75a42.75 42.75 0 0 1 85.5 0zm225 0a42.75 42.75 0 0 1-85.5 0v-225a42.75 42.75 0 0 1 85.5 0zm-18.866-425.801L524.52 485.09l-114.896-91.507-97.436 70.874a42.75 42.75 0 0 1-50.288-69.142L411.965 286.19l116.809 92.993L713.16 254.949a42.75 42.75 0 0 1 47.768 70.875z"/></svg>