<?xml version="1.0" standalone="no"?><!DOCTYPE svg PUBLIC "-//W3C//DTD SVG 1.1//EN" "http://www.w3.org/Graphics/SVG/1.1/DTD/svg11.dtd"><svg t="1597309935899" class="icon" viewBox="0 0 1024 1024" version="1.1" xmlns="http://www.w3.org/2000/svg" p-id="2811" xmlns:xlink="http://www.w3.org/1999/xlink" width="200" height="200"><defs><style type="text/css"></style></defs><path d="M793.25 62H230.75A112.5 112.5 0 0 0 118.25 174.5v675a112.5 112.5 0 0 0 112.5 112.5h562.5a112.5 112.5 0 0 0 112.5-112.5V174.5A112.5 112.5 0 0 0 793.25 62zM329.75 751.625a42.75 42.75 0 0 1-85.5 0V639.125a42.75 42.75 0 0 1 85.5 0z m225 0a42.75 42.75 0 0 1-85.5 0V582.875a42.75 42.75 0 0 1 85.5 0z m225 0a42.75 42.75 0 0 1-85.5 0V526.625a42.75 42.75 0 0 1 85.5 0z m-18.86625-425.80125l-236.3625 159.26625L409.625 393.5825l-97.43625 70.875a42.75 42.75 0 0 1-50.2875-69.1425l150.06375-109.125 116.80875 92.9925 184.3875-124.23375a42.75 42.75 0 0 1 47.7675 70.875z" p-id="2812"></path></svg>