<?xml version="1.0" standalone="no"?><!DOCTYPE svg PUBLIC "-//W3C//DTD SVG 1.1//EN" "http://www.w3.org/Graphics/SVG/1.1/DTD/svg11.dtd"><svg t="1597310102696" class="icon" viewBox="0 0 1024 1024" version="1.1" xmlns="http://www.w3.org/2000/svg" p-id="10436" xmlns:xlink="http://www.w3.org/1999/xlink" width="200" height="200"><defs><style type="text/css"></style></defs><path d="M528.497778 123.164444l364.999111 208.611556a33.166222 33.166222 0 0 1 16.725333 28.842667V426.666667a28.444444 28.444444 0 0 1-23.324444 27.989333L881.777778 455.111111a28.444444 28.444444 0 0 0-28.444445 28.444445v393.500444a33.166222 33.166222 0 0 1-33.166222 33.166222H203.832889A33.166222 33.166222 0 0 1 170.666667 877.056V483.555556a28.444444 28.444444 0 0 0-23.324445-27.989334L142.222222 455.111111a28.444444 28.444444 0 0 1-28.444444-28.444444V360.618667c0-11.946667 6.371556-22.926222 16.725333-28.842667L495.502222 123.164444c10.183111-5.802667 22.755556-5.802667 32.881778 0zM682.666667 512H341.333333v113.777778h341.333334V512z" fill="#ffffff" p-id="10437"></path></svg>