<svg class="icon" viewBox="0 0 1024 1024" xmlns="http://www.w3.org/2000/svg" width="200" height="200"><defs><style/></defs><path d="M528.498 123.164l364.999 208.612a33.166 33.166 0 0 1 16.725 28.843v66.048a28.444 28.444 0 0 1-23.324 27.989l-5.12.455a28.444 28.444 0 0 0-28.445 28.445v393.5a33.166 33.166 0 0 1-33.166 33.166H203.833a33.166 33.166 0 0 1-33.166-33.166v-393.5a28.444 28.444 0 0 0-23.325-27.99l-5.12-.455a28.444 28.444 0 0 1-28.444-28.444v-66.048a33.172 33.172 0 0 1 16.725-28.843l365-208.612c10.182-5.802 22.755-5.802 32.881 0zM682.667 512H341.333v113.778h341.334V512z"/></svg>