<?xml version="1.0" standalone="no"?><!DOCTYPE svg PUBLIC "-//W3C//DTD SVG 1.1//EN" "http://www.w3.org/Graphics/SVG/1.1/DTD/svg11.dtd"><svg t="1597309876087" class="icon" viewBox="0 0 1024 1024" version="1.1" xmlns="http://www.w3.org/2000/svg" p-id="2186" xmlns:xlink="http://www.w3.org/1999/xlink" width="200" height="200"><defs><style type="text/css"></style></defs><path d="M962 312.71428584v610.71428584c0 12.85714248-6.42857168 19.28571416-12.85714248 25.71428584-6.42857168 6.42857168-19.28571416 12.85714248-25.71428584 12.85714248H100.57142832c-12.85714248 0-19.28571416-6.42857168-25.71428584-12.85714248-6.42857168-6.42857168-12.85714248-19.28571416-12.85714248-25.71428584V312.71428584h900zM595.57142832 447.71428584v141.42857168H319.14285752v160.71428496h276.4285708V897.71428584L833.42857168 672.71428584 595.57142832 447.71428584zM479.85714248 62v192.85714248H62L152 94.14285752c12.85714248-19.28571416 32.14285752-32.14285752 57.85714248-32.14285752h270z m334.28571504 0c19.28571416 0 45 12.85714248 57.85714248 25.71428584L962 254.85714248H544.14285752V62h270z" p-id="2187"></path></svg>