<svg class="icon" viewBox="0 0 1024 1024" xmlns="http://www.w3.org/2000/svg" width="200" height="200"><defs><style/></defs><path d="M962 312.714V923.43c0 12.857-6.429 19.285-12.857 25.714C942.714 955.57 929.857 962 923.429 962H100.57c-12.857 0-19.285-6.429-25.714-12.857C68.43 942.714 62 929.857 62 923.429V312.714h900zm-366.429 135v141.429H319.143v160.714H595.57v147.857l237.858-225-237.858-225zM479.857 62v192.857H62l90-160.714C164.857 74.857 184.143 62 209.857 62h270zm334.286 0c19.286 0 45 12.857 57.857 25.714l90 167.143H544.143V62h270z"/></svg>