<svg class="icon" viewBox="0 0 1024 1024" xmlns="http://www.w3.org/2000/svg" width="200" height="200"><defs><style/></defs><path d="M576.286 190.571v514.286l128.571-70.714 128.572 70.714V190.571L704.857 62h109.286c25.714 0 45 12.857 57.857 25.714l70.714 83.572C955.571 190.57 962 209.857 962 235.57v623.572C962 917 917 962 859.143 962H164.857C107 962 62 917 62 859.143V235.57c0-25.714 6.429-45 25.714-64.285l70.715-83.572C164.857 74.857 190.57 62 209.857 62h237.857l128.572 128.571zM344.857 383.43H229.143c-25.714 0-38.572 12.857-38.572 32.142V422c0 19.286 19.286 25.714 38.572 25.714h109.286c32.142 0 45-12.857 45-32.143v-6.428c0-19.286-19.286-25.714-38.572-25.714z"/></svg>