<?xml version="1.0" standalone="no"?><!DOCTYPE svg PUBLIC "-//W3C//DTD SVG 1.1//EN" "http://www.w3.org/Graphics/SVG/1.1/DTD/svg11.dtd"><svg t="1597309860121" class="icon" viewBox="0 0 1024 1024" version="1.1" xmlns="http://www.w3.org/2000/svg" p-id="1810" xmlns:xlink="http://www.w3.org/1999/xlink" width="200" height="200"><defs><style type="text/css"></style></defs><path d="M576.28571416 190.57142832v514.28571416l128.57142832-70.71428496 128.5714292 70.71428496V190.57142832l-128.5714292-128.57142832h109.28571504c25.71428584 0 45 12.85714248 57.85714248 25.71428584l70.71428584 83.57142832c12.85714248 19.28571416 19.28571416 38.57142832 19.28571416 64.28571417v623.57142919c0 57.85714248-45 102.85714248-102.85714248 102.85714248H164.85714248C107 962 62 917 62 859.14285752V235.57142832c0-25.71428584 6.42857168-45 25.71428584-64.28571416L158.42857168 87.71428584c6.42857168-12.85714248 32.14285752-25.71428584 51.4285708-25.71428584H447.71428584l128.57142832 128.57142832zM344.85714248 383.42857168H229.14285752c-25.71428584 0-38.57142832 12.85714248-38.5714292 32.14285664v6.42857168c0 19.28571416 19.28571416 25.71428584 38.5714292 25.71428584h109.28571416c32.14285752 0 45-12.85714248 45-32.14285752v-6.4285708c0-19.28571416-19.28571416-25.71428584-38.5714292-25.71428585z" p-id="1811"></path></svg>