<?xml version="1.0" standalone="no"?><!DOCTYPE svg PUBLIC "-//W3C//DTD SVG 1.1//EN" "http://www.w3.org/Graphics/SVG/1.1/DTD/svg11.dtd"><svg t="1597309870130" class="icon" viewBox="0 0 1024 1024" version="1.1" xmlns="http://www.w3.org/2000/svg" p-id="2061" xmlns:xlink="http://www.w3.org/1999/xlink" width="200" height="200"><defs><style type="text/css"></style></defs><path d="M181.3 358.4C187 220.3 309.6 104.6 420.6 79.5c89-20.2 153.7-19 224.6 23.4 45.3 27.1 89 62 120.4 104.9 7.7 10.5 47.4-14.1 59.3-19.1-31.1 67.7-92.7 252.8-92.7 252.8l-269.1-81s87-22.8 98.1-65.9c12.8-49.4-67.2-106.5-136.7-97.5-85.1 11-166.6 82.7-243.2 161.3 0 0 120-165.3 0 0z m617.1-69.1C918.7 357.2 966 518.9 938 629.2c-22.5 88.4-52.9 145.5-123 189.4-44.8 28-95.7 51.1-148.2 59.6-12.8 2.1-9 48.7-9.9 61.5-46.1-58.5-183-197.6-183-197.6l194.5-202.9s-19.3 87.8 14 117.4c38.2 33.8 125.4-11.4 149-77.4 28.9-80.8 2.1-186-33-289.9 0 0 92.7 182 0 0zM552.3 860.6c-120.1 68.4-283.1 26-363.4-54.6-64.3-64.7-97.7-120.2-99.4-202.8-1-52.8 5.3-108.4 24.9-157.8 4.8-12.1-37.1-32.7-47.6-40.1 73.9-9.6 263.4-55.6 263.4-55.6l74.3 271s-65.5-61.6-107.9-48.2C248 588 242 686 286.6 740.2c54.5 66.3 158.5 97.2 265.7 120.4 0 0-203.7-13.9 0 0z" p-id="2062"></path></svg>