<svg class="icon" viewBox="0 0 1024 1024" xmlns="http://www.w3.org/2000/svg" width="200" height="200"><defs><style/></defs><path d="M967.52 704.96c-1.92-11.04-12.48-22.08-23.52-24.48l-8.16-1.92c-41.28-12.48-65.28-54.72-55.68-96.48l2.4-7.68c3.36-10.56-.96-25.44-9.6-32.64 0 0-7.68-6.72-29.28-18.72-21.6-12.48-30.72-15.84-30.72-15.84-10.56-3.84-25.44 0-32.64 8.16l-5.76 6.24c-14.88 14.4-35.04 22.08-55.68 22.08s-40.8-8.16-56.16-22.56l-5.28-5.76c-7.68-8.16-22.56-12-32.64-8.16 0 0-9.6 3.36-31.2 15.84s-29.28 19.2-29.28 19.2c-8.64 7.2-12.48 21.6-9.6 32.16l2.4 7.68c4.8 20.16 1.92 41.76-8.64 59.52-10.56 18.24-27.36 31.2-47.04 37.44l-7.68 1.92c-10.56 2.4-21.6 13.44-23.52 24.48 0 0-1.92 9.6-1.92 34.56s1.92 34.56 1.92 34.56c1.92 11.04 12.48 22.08 23.52 24.48l7.68 1.92c41.28 12 66.24 54.72 56.16 96.96l-2.4 7.68c-3.36 10.56.96 25.44 9.6 32.64 0 0 7.68 6.72 29.28 18.72 21.6 12.48 30.72 15.84 30.72 15.84 10.56 3.84 25.44 0 32.64-8.16l5.28-5.76c31.2-29.76 80.64-29.76 111.84 0l5.28 5.76c7.68 8.16 22.56 12 32.64 8.16 0 0 9.6-3.36 31.2-15.84s29.28-18.72 29.28-18.72c8.64-7.2 12.48-21.6 9.6-32.64l-2.4-7.68c-4.8-20.16-1.92-41.28 8.64-59.52 10.56-18.24 27.36-31.2 47.52-37.44l7.68-1.92c10.56-2.4 21.6-13.44 23.52-24.48 0 0 1.92-9.6 1.92-34.56-.48-24.96-1.92-35.04-1.92-35.04zM718.88 839.84c-55.2 0-99.84-44.64-99.84-99.84s44.64-99.84 99.84-99.84 99.84 44.64 99.84 99.84-44.64 99.84-99.84 99.84zm0 0"/><path d="M684.32 71.36H142.4c-41.28 0-74.88 33.6-74.88 74.88v689.28c0 41.28 33.6 74.88 74.88 74.88h305.28s-125.76-480 312-480V145.76c-.48-41.28-34.08-74.4-75.36-74.4zM401.6 571.04H241.28c-17.28-.96-31.2-15.36-31.2-32.64s13.92-31.68 31.2-32.64H401.6c18.24 0 32.64 14.4 32.64 32.64s-14.4 32.64-32.64 32.64zM559.04 420.8H241.28c-18.24 0-32.64-14.4-32.64-32.64s14.4-32.64 32.64-32.64h317.76c18.24 0 32.64 14.4 32.64 32.64 0 17.76-14.4 32.64-32.64 32.64zm0-148.32H241.28c-18.24 0-32.64-14.4-32.64-32.64s14.4-32.64 32.64-32.64h317.76c18.24 0 32.64 14.4 32.64 32.64s-14.4 32.64-32.64 32.64zm0 0"/></svg>