<svg class="icon" viewBox="0 0 1024 1024" xmlns="http://www.w3.org/2000/svg" width="200" height="200"><defs><style/></defs><path d="M802.222 62c82.956 0 153.15 57.431 153.15 134.006v657.266c0 57.431-51.05 102.1-114.862 102.1-19.144 0-44.669-6.381-57.431-12.763L540.592 814.985c-12.762-6.381-31.906-6.381-38.287 0L247.055 948.99c-57.43 25.525-127.624 12.762-159.53-31.907C68.38 891.56 62 872.416 62 853.272V196.006C62 119.43 132.194 62 215.15 62h587.072zm-261.63 191.437h-76.575c-19.143 0-38.287 19.144-38.287 38.287v63.812h-70.194c-19.143 0-38.287 19.144-38.287 38.288v76.575c0 19.143 19.144 38.287 38.287 38.287h70.194v63.812c0 19.144 19.144 38.288 38.287 38.288h76.575c19.144 0 38.287-19.144 38.287-38.288v-63.812h70.194c19.144 0 38.287-19.144 38.287-38.287v-76.575c0-19.144-19.143-38.288-38.287-38.288h-70.194v-63.812c0-19.144-19.143-38.287-38.287-38.287z"/></svg>