<?xml version="1.0" standalone="no"?><!DOCTYPE svg PUBLIC "-//W3C//DTD SVG 1.1//EN" "http://www.w3.org/Graphics/SVG/1.1/DTD/svg11.dtd"><svg t="1594980253983" class="icon" viewBox="0 0 1126 1024" version="1.1" xmlns="http://www.w3.org/2000/svg" p-id="27493" xmlns:xlink="http://www.w3.org/1999/xlink" width="219.921875" height="200"><defs><style type="text/css"></style></defs><path d="M0 0v1024h588.544v-118.3744H119.1936V118.3744h887.04v401.152h119.1936V0H0z m186.2656 337.92h652.5952V226.9696H186.2656V337.92z m0 251.2384h348.672V478.208h-348.672v110.9504z" p-id="27494"></path><path d="M762.7776 664.576a48.3328 48.3328 0 0 0-13.824 2.1504c-21.8112 6.5536-43.8272 28.6208-43.8272 63.1808 0 48.2816 55.04 91.8016 99.2256 126.72l0.8704 0.7168a3401.1136 3401.1136 0 0 0 50.1248 38.656l25.1392-19.2 26.4704-20.1216c48.0768-36.608 99.328-79.6672 99.328-127.3856 0-34.2016-21.8112-56.064-43.52-62.5664-15.3088-4.608-37.6832-3.9424-57.344 25.3952l-49.664 74.0864-49.5616-74.0864c-14.336-21.3504-30.0544-27.4944-43.4176-27.4944z m114.5344 248.576l0.1024 0.0512-0.1024-0.0512z m-43.9808 0.4096a32.512 32.512 0 0 0-0.512 0.4096l0.512-0.4096zM855.7568 1024c-19.0464 0-38.2464-6.4-54.016-19.3024-5.7856-4.7104-12.9536-10.24-22.8864-17.7664-11.9808-9.1136-26.9312-20.48-47.7184-36.864l-1.024-0.8192c-57.3952-45.3632-144.1792-113.9712-144.1792-219.3408 0-82.4832 51.712-153.4464 128.512-176.4864a161.792 161.792 0 0 1 141.312 22.016 161.9456 161.9456 0 0 1 141.6704-22.016c76.6976 23.1424 128.1536 93.8496 128 175.9744 0 109.9776-94.8736 182.3232-145.8688 221.184l-26.7264 20.3264c-20.8384 15.8208-33.3824 25.344-42.496 33.024a83.6096 83.6096 0 0 1-54.5792 20.0704z" p-id="27495"></path></svg>