<svg class="icon" viewBox="0 0 1024 1024" xmlns="http://www.w3.org/2000/svg" width="200" height="200"><defs><style/></defs><path d="M652.8 434.72c-19.2 12.8-32 35.2-25.6 54.4 3.2 32 28.8 54.4 57.6 54.4 32 0 57.6-25.6 57.6-54.4 3.2-22.4-6.4-44.8-28.8-54.4-19.2-12.8-44.8-12.8-60.8 0zm-166.4 188.8c-16 12.8-22.4 28.8-19.2 44.8 0 32 25.6 54.4 60.8 54.4 35.2 0 57.6-25.6 57.6-60.8 0-35.2-25.6-57.6-60.8-57.6-16 6.4-28.8 9.6-38.4 19.2zm-60.8-307.2c-22.4-16-54.4-16-76.8 0-25.6 16-35.2 41.6-35.2 64-3.2 25.6 9.6 51.2 35.2 64 12.8 6.4 25.6 12.8 38.4 12.8s25.6-6.4 38.4-12.8c25.6-16 35.2-41.6 35.2-64s-9.6-44.8-35.2-64z"/><path d="M108.8 517.92l-60.8 112 92.8 64 83.2-67.2-54.4-35.2 41.6-83.2-44.8-83.2 80-54.4-6.4-92.8 92.8-12.8 44.8-83.2 83.2 32 76.8-54.4 67.2 70.4 92.8-16 80-64-6.4-35.2-128 19.2-86.4-96-102.4 76.8-121.6-48-57.6 121.6-128 16 3.2 131.2L48 409.12l60.8 108.8zm870.4-16l-86.4-92.8 32-124.8-44.8-16-83.2 73.6 19.2 6.4-32 99.2 73.6 64-70.4 76.8 28.8 83.2-89.6 38.4-19.2 89.6-92.8-9.6-60.8 70.4-76.8-54.4-86.4 35.2-48-83.2-35.2-3.2-92.8 80 73.6 6.4 60.8 112 118.4-48 108.8 73.6 80-99.2 128 16 25.6-124.8 121.6-44.8-35.2-124.8 83.2-99.2zm-41.6-384c-19.2-19.2-44.8-19.2-60.8-6.4L96 780.32c-19.2 16-19.2 44.8-3.2 60.8 6.4 6.4 19.2 12.8 32 12.8 6.4 0 19.2 0 28.8-12.8l780.8-662.4c19.2-19.2 19.2-44.8 3.2-60.8z"/></svg>