<?xml version="1.0" standalone="no"?><!DOCTYPE svg PUBLIC "-//W3C//DTD SVG 1.1//EN" "http://www.w3.org/Graphics/SVG/1.1/DTD/svg11.dtd"><svg t="1594980093174" class="icon" viewBox="0 0 1024 1024" version="1.1" xmlns="http://www.w3.org/2000/svg" p-id="23517" xmlns:xlink="http://www.w3.org/1999/xlink" width="200" height="200"><defs><style type="text/css"></style></defs><path d="M735.82 249.599c25.089 0 43.013-19.712 44.807-46.595v-91.403c0-12.541-3.588-23.295-12.547-32.258-12.548-14.336-30.466-17.919-48.385-10.753-16.13 7.17-28.677 23.295-28.677 43.012v91.403c0.001 25.088 19.712 46.594 44.802 46.594z m-448.043 0c25.09 0 43.013-19.712 44.808-46.595v-89.608c0-12.542-3.588-23.301-12.548-32.261-12.548-14.34-30.471-17.917-48.389-10.752-17.925 5.377-28.678 21.507-28.678 41.218v91.403c0.001 25.089 19.718 46.595 44.807 46.595z m602.166-89.608c-25.09-5.372-51.968-3.583-78.855-3.583v55.554c0 51.978-55.556 89.614-102.151 69.896-28.677-12.547-48.389-39.426-48.389-73.479v-50.184H363.045v62.726c-7.165 41.224-41.218 69.896-82.438 66.313-39.424-3.578-68.102-37.637-68.102-78.855v-50.184h-69.896c-3.583 0-7.17 0-12.546 1.799-39.431 12.541-66.309 46.596-66.309 89.603v616.51c0 53.761 39.425 94.985 91.403 94.985H522.55l1.794-66.311H156.945c-23.295 0-34.048-12.548-34.048-35.843V430.61h777.804v136.208l59.143 7.168V251.394c0-46.597-28.677-84.232-69.901-91.403z m-64.514 623.678c34.049-19.713 59.143-57.349 59.143-100.362 0-62.728-50.184-114.697-111.12-114.697-60.927 0-111.109 51.97-111.109 114.697 0 43.014 23.295 80.649 59.138 100.362-66.309 19.712-120.075 77.062-132.622 150.542-1.789 12.543 5.377 23.296 16.13 25.092H941.92c10.748-1.796 19.713-14.341 16.13-25.092-12.542-73.481-64.52-129.038-132.621-150.542zM219.67 706.607c-12.541 0-23.295 16.13-23.295 28.672 0 12.547 10.754 28.677 23.295 28.677h281.378c12.542 0 23.296-16.13 23.296-28.677 0-12.542-10.754-28.672-23.296-28.672H219.67z m353.062-166.674H219.67c-12.546 0-23.295 16.127-23.295 28.677 0 12.547 10.75 28.674 23.295 28.674h354.856c12.542 0 23.296-16.127 23.296-28.674-1.789-12.55-12.547-28.677-25.09-28.677z m0 0" p-id="23518"></path></svg>