<?xml version="1.0" standalone="no"?><!DOCTYPE svg PUBLIC "-//W3C//DTD SVG 1.1//EN" "http://www.w3.org/Graphics/SVG/1.1/DTD/svg11.dtd"><svg t="1597309840245" class="icon" viewBox="0 0 1024 1024" version="1.1" xmlns="http://www.w3.org/2000/svg" p-id="1560" xmlns:xlink="http://www.w3.org/1999/xlink" width="200" height="200"><defs><style type="text/css"></style></defs><path d="M632.26780508 190.01980567l-1.12190098-2.01942159c-30.17914102-34.6667458-64.73369707-74.83080761-93.2299875-112.19011699a44.87604697 44.87604697 0 0 0-6.84359649-7.51673847 31.52542325 31.52542325 0 0 0-44.0907161 6.28264687c-26.2524876 34.44236631-56.09505849 69.22130185-84.59134805 102.8783373l-9.08739932 10.54587129C282.68340136 317.1312081 168.1372918 450.52525742 168.1372918 618.1372918a343.8627082 343.8627082 0 0 0 687.7254164 0c0-167.724225-113.53639834-299.88418271-223.59490312-428.11748613zM523.21901152 794.83672549A33.65703545 33.65703545 0 0 1 489.56197695 824.90367676a32.31075322 32.31075322 0 0 1-7.2923581-0.78532998c-66.30435878-14.69690508-165.48042217-107.36594209-186.79654424-194.87423321a33.65703545 33.65703545 0 0 1 65.29464756-16.0431873c15.70661631 64.8458877 95.9225502 136.42318213 136.08661201 145.28620196A33.65703545 33.65703545 0 0 1 523.21901152 794.83672549z" p-id="1561"></path></svg>