<svg class="icon" viewBox="0 0 1024 1024" xmlns="http://www.w3.org/2000/svg" width="200" height="200"><defs><style/></defs><path d="M632.268 190.02l-1.122-2.02c-30.18-34.666-64.734-74.83-93.23-112.19a44.876 44.876 0 0 0-6.844-7.516 31.525 31.525 0 0 0-44.09 6.282c-26.253 34.443-56.095 69.221-84.592 102.879L393.303 188c-110.62 129.131-225.166 262.525-225.166 430.137a343.863 343.863 0 0 0 687.726 0c0-167.724-113.537-299.884-223.595-428.117zM523.219 794.837a33.657 33.657 0 0 1-33.657 30.067 32.31 32.31 0 0 1-7.292-.786c-66.305-14.697-165.48-107.366-186.797-194.874a33.657 33.657 0 0 1 65.295-16.043c15.706 64.846 95.922 136.423 136.086 145.286a33.657 33.657 0 0 1 26.365 36.35z"/></svg>