<?xml version="1.0" standalone="no"?><!DOCTYPE svg PUBLIC "-//W3C//DTD SVG 1.1//EN" "http://www.w3.org/Graphics/SVG/1.1/DTD/svg11.dtd"><svg t="1594980156834" class="icon" viewBox="0 0 1024 1024" version="1.1" xmlns="http://www.w3.org/2000/svg" p-id="24265" xmlns:xlink="http://www.w3.org/1999/xlink" width="200" height="200"><defs><style type="text/css"></style></defs><path d="M543.972801 336.0088a40.036398 40.036398 0 0 0-39.9852-40.036399H216.002a40.036398 40.036398 0 0 0 0 80.021599h287.985601a39.985201 39.985201 0 0 0 39.9852-39.9852z m-327.970801 247.949202H286.705665a40.957952 40.957952 0 0 0 40.650767-31.9984 39.934003 39.934003 0 0 0-31.435228-47.152842 37.630118 37.630118 0 0 0-7.935603-0.819159H217.486726a40.957952 40.957952 0 0 0-40.59957 31.9984 39.882806 39.882806 0 0 0 31.179241 47.152842 37.630118 37.630118 0 0 0 7.935603 0.819159z m0 200.028399h127.9936a40.036398 40.036398 0 0 0 0-80.021599h-127.9936a40.036398 40.036398 0 1 0 0 80.021599z m535.934803-304.0104A272.011999 272.011999 0 1 0 1023.948803 751.988001a271.960802 271.960802 0 0 0-272.012-272.012z m0 464.0024a191.9904 191.9904 0 1 1 191.990401-191.9904 191.9904 191.9904 0 0 1-191.990401 191.9904z" p-id="24266"></path><path d="M644.626969 707.497425c-23.960402 24.011599-11.161042 70.550072 38.090895 70.294085a12.031398 12.031398 0 0 0 7.986801-3.58382l21.451727-21.042148v108.896955a11.877806 11.877806 0 0 0 3.379031 8.447577c34.60947 35.070246 76.79616 10.956252 76.79616-22.78286v-94.561672l21.042148 21.042148a12.031398 12.031398 0 0 0 7.986801 3.58382c49.251937 0 62.0001-46.384881 38.090895-70.294085l-79.202439-80.021599a40.036398 40.036398 0 0 0-56.573172 0z" p-id="24267"></path><path d="M457.19314 943.978401h-353.262337a24.011599 24.011599 0 0 1-24.011599-24.011599V103.982001a23.960402 23.960402 0 0 1 24.011599-23.960402h413.521724a23.960402 23.960402 0 0 1 16.99755 7.014049l178.474277 178.474277a23.960402 23.960402 0 0 1 7.014049 16.946352v119.034048q15.871206-1.433528 31.9984-1.484725a350.446478 350.446478 0 0 1 48.023199 3.327833V282.456277a103.418829 103.418829 0 0 0-30.462477-73.519524L591.023249 30.718464a103.418829 103.418829 0 0 0-73.519524-30.718464H103.982001A103.982001 103.982001 0 0 0 0 103.982001v815.984801A103.982001 103.982001 0 0 0 103.982001 1023.948803h424.938753a354.900655 354.900655 0 0 1-71.727614-79.970402z" p-id="24268"></path></svg>