<?xml version="1.0" standalone="no"?><!DOCTYPE svg PUBLIC "-//W3C//DTD SVG 1.1//EN" "http://www.w3.org/Graphics/SVG/1.1/DTD/svg11.dtd"><svg t="1597310649268" class="icon" viewBox="0 0 1024 1024" version="1.1" xmlns="http://www.w3.org/2000/svg" p-id="1563" xmlns:xlink="http://www.w3.org/1999/xlink" width="200" height="200"><defs><style type="text/css"></style></defs><path d="M801.28571416 209.85714248c90 0 160.71428584 70.71428584 160.71428584 154.28571504v443.57142832c0 83.57142832-70.71428584 154.28571416-160.71428584 154.28571416h-578.57142832C132.71428584 962 62 891.28571416 62 807.71428584V364.14285752c0-83.57142832 70.71428584-154.28571416 160.71428584-154.28571504h57.85714248v-38.57142832C280.57142832 107 332 62 396.28571416 62h231.42857168c64.28571416 0 115.71428584 51.42857168 115.71428583 109.28571416v38.57142832h57.85714249z m-450-38.57142832v38.57142832h327.85714336v-38.57142832c0-12.85714248-6.42857168-25.71428584-12.85714336-32.14285664-12.85714248-6.42857168-25.71428584-12.85714248-38.57142832-12.85714336H396.28571416c-25.71428584 0-45 19.28571416-45 45zM659.85714248 512H589.14285752V447.71428584c0-19.28571416-19.28571416-38.57142832-38.5714292-38.57142832H473.42857168c-19.28571416 0-38.57142832 19.28571416-38.5714292 38.57142832v64.28571416H364.14285752c-19.28571416 0-38.57142832 19.28571416-38.5714292 38.57142832v77.14285752c0 19.28571416 19.28571416 38.57142832 38.5714292 38.57142832h70.71428496v64.28571417c0 19.28571416 19.28571416 38.57142832 38.5714292 38.57142919h77.14285664c19.28571416 0 38.57142832-19.28571416 38.5714292-38.5714292v-64.28571416h70.71428496c19.28571416 0 38.57142832-19.28571416 38.5714292-38.57142832V550.57142832c0-19.28571416-19.28571416-38.57142832-38.5714292-38.57142832z" p-id="1564"></path></svg>