<svg class="icon" viewBox="0 0 1024 1024" xmlns="http://www.w3.org/2000/svg" width="200" height="200"><defs><style/></defs><path d="M801.286 209.857c90 0 160.714 70.714 160.714 154.286v443.571C962 891.286 891.286 962 801.286 962H222.714C132.714 962 62 891.286 62 807.714V364.143c0-83.572 70.714-154.286 160.714-154.286h57.857v-38.571C280.571 107 332 62 396.286 62h231.428C692 62 743.43 113.429 743.43 171.286v38.571h57.857zm-450-38.571v38.571h327.857v-38.571c0-12.857-6.429-25.715-12.857-32.143-12.857-6.429-25.715-12.857-38.572-12.857H396.286c-25.715 0-45 19.285-45 45zM659.857 512h-70.714v-64.286c0-19.285-19.286-38.571-38.572-38.571H473.43c-19.286 0-38.572 19.286-38.572 38.571V512h-70.714c-19.286 0-38.572 19.286-38.572 38.571v77.143c0 19.286 19.286 38.572 38.572 38.572h70.714v64.285c0 19.286 19.286 38.572 38.572 38.572h77.142c19.286 0 38.572-19.286 38.572-38.572v-64.285h70.714c19.286 0 38.572-19.286 38.572-38.572v-77.143c0-19.285-19.286-38.571-38.572-38.571z"/></svg>