<?xml version="1.0" standalone="no"?><!DOCTYPE svg PUBLIC "-//W3C//DTD SVG 1.1//EN" "http://www.w3.org/Graphics/SVG/1.1/DTD/svg11.dtd"><svg t="1597309899672" class="icon" viewBox="0 0 1024 1024" version="1.1" xmlns="http://www.w3.org/2000/svg" p-id="2561" xmlns:xlink="http://www.w3.org/1999/xlink" width="200" height="200"><defs><style type="text/css"></style></defs><path d="M801.28571416 62H512v315l-122.14285752-64.28571416-115.71428496 64.28571416V62h-51.42857168C171.28571416 62 126.28571416 107 126.28571416 158.42857168v707.14285664c0 51.42857168 45 96.42857168 96.42857168 96.42857168h578.57142832c51.42857168 0 96.42857168-45 96.42857168-96.42857168v-707.14285664c0-51.42857168-45-96.42857168-96.42857168-96.42857168zM357.71428584 865.57142832l-51.42857168-51.4285708c45-19.28571416 83.57142832-51.42857168 109.28571417-90-12.85714248-12.85714248-32.14285752-25.71428584-45.00000001-38.57142919l32.14285752-45c12.85714248 6.42857168 25.71428584 19.28571416 38.57142832 25.71428583 12.85714248-25.71428584 19.28571416-51.42857168 19.28571416-83.57142832h-51.4285708c-12.85714248 38.57142832-32.14285752 77.14285752-51.42857168 102.85714248-12.85714248-12.85714248-38.57142832-32.14285752-51.42857168-38.57142832 38.57142832-45 57.85714248-115.71428584 70.71428584-186.42857168l64.28571416 12.85714336c-6.42857168 25.71428584-6.42857168 38.57142832-12.85714249 57.85714248h64.28571417l45 12.85714336c-19.28571416 167.14285752-77.14285752 276.42857168-180 321.4285708z m308.57142832-128.57142832c-12.85714248-19.28571416-32.14285752-45-57.85714249-70.71428584v205.71428584h-64.28571415V467h64.28571415v141.42857168l25.71428585-19.28571416c25.71428584 32.14285752 64.28571416 70.71428584 83.57142832 96.4285708l-51.42857168 51.42857168z" p-id="2562"></path></svg>