<svg class="icon" viewBox="0 0 1024 1024" xmlns="http://www.w3.org/2000/svg" width="200" height="200"><defs><style/></defs><path d="M801.286 62H512v315l-122.143-64.286L274.143 377V62h-51.429c-51.428 0-96.428 45-96.428 96.429V865.57c0 51.429 45 96.429 96.428 96.429h578.572c51.428 0 96.428-45 96.428-96.429V158.43c0-51.429-45-96.429-96.428-96.429zM357.714 865.571l-51.428-51.428c45-19.286 83.571-51.429 109.285-90-12.857-12.857-32.142-25.714-45-38.572l32.143-45c12.857 6.429 25.715 19.286 38.572 25.715 12.857-25.715 19.285-51.429 19.285-83.572h-51.428c-12.857 38.572-32.143 77.143-51.429 102.857-12.857-12.857-38.571-32.142-51.428-38.571 38.571-45 57.857-115.714 70.714-186.429l64.286 12.858c-6.429 25.714-6.429 38.571-12.857 57.857h64.285l45 12.857c-19.285 167.143-77.143 276.428-180 321.428zM666.286 737c-12.857-19.286-32.143-45-57.857-70.714V872h-64.286V467h64.286v141.429l25.714-19.286c25.714 32.143 64.286 70.714 83.571 96.428L666.286 737z"/></svg>