<?xml version="1.0" standalone="no"?><!DOCTYPE svg PUBLIC "-//W3C//DTD SVG 1.1//EN" "http://www.w3.org/Graphics/SVG/1.1/DTD/svg11.dtd"><svg t="1594980380613" class="icon" viewBox="0 0 1024 1024" version="1.1" xmlns="http://www.w3.org/2000/svg" p-id="29296" xmlns:xlink="http://www.w3.org/1999/xlink" width="200" height="200"><defs><style type="text/css"></style></defs><path d="M505.5 44.4L107.3 218.3v262.8c0 273.8 181.7 496.6 405 496.6s405-222.8 405-496.6V217.9L505.5 44.4zM829 481.1c0 225.1-142.1 408.2-316.7 408.2S195.6 706.2 195.6 481.1v-205l310.5-135.6 322.8 136v204.6z" p-id="29297"></path><path d="M318.5 481.5c0 62.8 16.6 114.8 49.8 155.9 35.6 44.3 83.6 66.4 144.1 66.4 43.5 0 81-11.9 112.6-35.6 24.9 25.3 43.5 44.5 55.7 57.5l46.2-44.4c-18.2-20.1-37.7-40.3-58.7-60.5 24.9-39.1 37.4-85.5 37.4-139.3 0-62.8-16.6-114.8-49.8-155.9-35.2-43.9-83-65.8-143.5-65.8s-108.5 21.9-144.1 65.8c-33.1 41.1-49.7 93.1-49.7 155.9z m98.9-119.2c23.7-29.2 55.3-43.9 94.8-43.9 38.7 0 70.1 14.6 94.2 43.9 24.1 29.6 36.1 69.4 36.1 119.2 0 37.1-7.1 69.1-21.3 96-13.4-11.9-27.4-23.7-42.1-35.6l-42.7 44.5c14.2 11.5 29.1 24.3 44.5 38.5-20.1 13.8-43.1 20.7-68.8 20.7-38.7 0-70.1-15-94.2-45-24.1-29.6-36.1-69.4-36.1-119.1 0.1-49.8 11.9-89.5 35.6-119.2z" p-id="29298"></path></svg>