<svg class="icon" viewBox="0 0 1031 1024" xmlns="http://www.w3.org/2000/svg" width="201.367" height="200"><defs><style/></defs><path d="M936.286 171.286L865.57 87.714C859.143 74.857 833.43 62 814.143 62H209.857c-19.286 0-45 12.857-57.857 25.714l-64.286 83.572C68.43 190.57 62 209.857 62 235.57v623.572C62 917 107 962 164.857 962h700.714c57.858 0 102.858-45 102.858-102.857V235.57c-6.429-25.714-12.858-45-32.143-64.285zM512 788.429L235.571 512h173.572V409.143h199.286V512H782L512 788.429zM164.857 164.857l38.572-51.428h597.857l45 51.428H164.857z"/></svg>