<?xml version="1.0" standalone="no"?><!DOCTYPE svg PUBLIC "-//W3C//DTD SVG 1.1//EN" "http://www.w3.org/Graphics/SVG/1.1/DTD/svg11.dtd"><svg t="1597309853428" class="icon" viewBox="0 0 1031 1024" version="1.1" xmlns="http://www.w3.org/2000/svg" p-id="1685" xmlns:xlink="http://www.w3.org/1999/xlink" width="201.3671875" height="200"><defs><style type="text/css"></style></defs><path d="M936.28571416 171.28571416L865.57142832 87.71428584c-6.42857168-12.85714248-32.14285752-25.71428584-51.4285708-25.71428584H209.85714248c-19.28571416 0-45 12.85714248-57.85714248 25.71428584l-64.28571416 83.57142832c-19.28571416 19.28571416-25.71428584 38.57142832-25.71428584 64.28571416v623.5714292c0 57.85714248 45 102.85714248 102.85714248 102.85714248h700.71428584c57.85714248 0 102.85714248-45 102.85714336-102.85714248V235.57142832c-6.42857168-25.71428584-12.85714248-45-32.14285752-64.28571416zM512 788.42857168L235.57142832 512h173.5714292V409.14285752h199.28571415V512h173.57142833L512 788.42857168zM164.85714248 164.85714248l38.5714292-51.4285708h597.85714248l45 51.4285708H164.85714248z" p-id="1686"></path></svg>