<?xml version="1.0" standalone="no"?><!DOCTYPE svg PUBLIC "-//W3C//DTD SVG 1.1//EN" "http://www.w3.org/Graphics/SVG/1.1/DTD/svg11.dtd"><svg t="1597309929137" class="icon" viewBox="0 0 1024 1024" version="1.1" xmlns="http://www.w3.org/2000/svg" p-id="2686" xmlns:xlink="http://www.w3.org/1999/xlink" width="200" height="200"><defs><style type="text/css"></style></defs><path d="M904.14285752 299.85714248L550.57142832 74.85714248C524.85714248 62 492.71428584 62 467 74.85714248L119.85714248 299.85714248C81.28571416 319.14285752 62 357.71428584 62 402.71428584v482.14285664c0 38.57142832 38.57142832 77.14285752 83.57142832 77.14285752h732.85714335c45 0 83.57142832-38.57142832 83.57142833-77.14285752V402.71428584c0-45-19.28571416-83.57142832-57.85714248-102.85714336z m-147.85714336 282.85714336H704.85714248c-12.85714248 83.57142832-77.14285752 147.85714248-160.71428496 160.71428583v51.42857081c0 19.28571416-12.85714248 32.14285752-32.14285752 32.14285752s-32.14285752-12.85714248-32.14285752-32.14285752v-51.42857081C396.28571416 730.57142832 332 666.28571416 319.14285752 582.71428584h-45c-19.28571416 0-32.14285752-12.85714248-32.14285752-32.14285752s12.85714248-32.14285752 32.14285752-32.14285665H319.14285752c12.85714248-83.57142832 77.14285752-147.85714248 160.71428496-160.71428583v-45c0-12.85714248 6.42857168-19.28571416 12.85714336-25.71428584 6.42857168-6.42857168 19.28571416-6.42857168 32.14285664 0s12.85714248 12.85714248 12.85714336 25.71428584v51.42857168c83.57142832 12.85714248 147.85714248 77.14285752 160.71428584 160.71428496h51.4285708c19.28571416 0 32.14285752 12.85714248 32.14285752 32.14285752s-12.85714248 25.71428584-25.71428584 25.71428584zM602 460.57142832c-12.85714248-19.28571416-38.57142832-25.71428584-57.85714248-32.14285665-19.28571416-6.42857168-38.57142832-6.42857168-64.28571504 0-45 6.42857168-83.57142832 45-96.4285708 90.00000001v64.28571416c12.85714248 45 51.42857168 83.57142832 96.4285708 96.42857168 19.28571416 6.42857168 38.57142832 6.42857168 64.28571504 0 45-12.85714248 83.57142832-51.42857168 96.42857081-96.42857168 6.42857168-19.28571416 6.42857168-38.57142832-1e-8-64.28571416-6.42857168-19.28571416-19.28571416-38.57142832-38.57142832-57.85714336z" p-id="2687"></path></svg>