<svg class="icon" viewBox="0 0 1024 1024" xmlns="http://www.w3.org/2000/svg" width="200" height="200"><defs><style/></defs><path d="M904.143 299.857l-353.572-225C524.857 62 492.714 62 467 74.857l-347.143 225C81.286 319.143 62 357.714 62 402.714v482.143C62 923.43 100.571 962 145.571 962H878.43c45 0 83.571-38.571 83.571-77.143V402.714c0-45-19.286-83.571-57.857-102.857zM756.286 582.714h-51.429C692 666.286 627.714 730.571 544.143 743.43v51.428C544.143 814.143 531.286 827 512 827s-32.143-12.857-32.143-32.143V743.43C396.286 730.57 332 666.286 319.143 582.714h-45c-19.286 0-32.143-12.857-32.143-32.143s12.857-32.142 32.143-32.142h45C332 434.857 396.286 370.57 479.857 357.714v-45c0-12.857 6.429-19.285 12.857-25.714 6.429-6.429 19.286-6.429 32.143 0s12.857 12.857 12.857 25.714v51.429C621.286 377 685.571 441.286 698.43 524.857h51.428C769.143 524.857 782 537.714 782 557s-12.857 25.714-25.714 25.714zM602 460.571c-12.857-19.285-38.571-25.714-57.857-32.142-19.286-6.429-38.572-6.429-64.286 0-45 6.428-83.571 45-96.428 90v64.285c12.857 45 51.428 83.572 96.428 96.429 19.286 6.428 38.572 6.428 64.286 0 45-12.857 83.571-51.429 96.428-96.429 6.429-19.285 6.429-38.571 0-64.285-6.428-19.286-19.285-38.572-38.571-57.858z"/></svg>